<svg height="512pt" viewBox="0 0 512.14023 512" width="512pt" xmlns="http://www.w3.org/2000/svg"><path d="m192.136719 215.988281 64 32 64-32-64-32zm0 0" fill="#344a5d"/><path d="m192.136719 215.988281v80l64 32 64-32v-80l-64 32zm0 0" fill="#607d8c"/><path d="m504.144531 95.4375c-.3125-48.558594-39.992187-87.667969-88.632812-87.355469-48.644531.308594-87.820313 39.925781-87.511719 88.480469.3125 48.558594 39.996094 87.667969 88.636719 87.359375 48.640625-.3125 87.820312-39.929687 87.507812-88.484375zm0 0" fill="#fdd762"/><path d="m416.050781 191.910156c-52.679687 0-95.710937-42.625-96.046875-95.304687-.167968-25.625 9.671875-49.773438 27.703125-68.007813 18.03125-18.222656 42.085938-28.359375 67.742188-28.519531h.632812c52.6875 0 95.71875 42.625 96.054688 95.304687.167969 25.625-9.671875 49.773438-27.710938 68.007813-18.023437 18.222656-42.085937 28.359375-67.742187 28.519531-.210938 0-.417969 0-.632813 0zm.03125-175.839844c-.175781 0-.351562 0-.519531 0-21.390625.136719-41.449219 8.582032-56.480469 23.777344-15.015625 15.191406-23.214843 35.308594-23.078125 56.65625.277344 43.894532 36.140625 79.40625 80.046875 79.40625h.519531c21.390626-.136718 41.457032-8.585937 56.480469-23.777344 15.023438-15.191406 23.222657-35.3125 23.085938-56.65625-.277344-43.894531-36.152344-79.40625-80.054688-79.40625zm0 0"/><path d="m448.136719 79.988281-32 16-32-16 32-40zm0 0" fill="#fee7a1"/><path d="m416.136719 103.988281c-1.222657 0-2.453125-.277343-3.574219-.839843l-32-16c-2.167969-1.078126-3.71875-3.078126-4.230469-5.4375-.515625-2.359376.054688-4.824219 1.558594-6.710938l32-40c3.046875-3.800781 9.457031-3.800781 12.496094 0l32 40c1.503906 1.886719 2.078125 4.351562 1.558593 6.710938-.519531 2.359374-2.070312 4.359374-4.230468 5.4375l-32 16c-1.121094.5625-2.351563.839843-3.578125.839843zm-19.566407-26.726562 19.566407 9.785156 19.570312-9.785156-19.570312-24.464844zm0 0"/><path d="m448.136719 103.988281-32 16-32-16 32 48zm0 0" fill="#fee7a1"/><path d="m416.136719 159.988281c-2.671875 0-5.167969-1.335937-6.65625-3.558593l-32-48c-2.015625-3.015626-1.742188-7.007813.65625-9.726563 2.425781-2.722656 6.351562-3.480469 9.578125-1.863281l28.421875 14.207031 28.425781-14.207031c3.222656-1.625 7.160156-.867188 9.574219 1.863281 2.402343 2.71875 2.671875 6.710937.65625 9.726563l-32 48c-1.488281 2.222656-3.984375 3.558593-6.65625 3.558593zm-8.628907-35.367187 8.628907 12.945312 8.632812-12.953125-5.054687 2.527344c-2.25 1.128906-4.90625 1.128906-7.160156 0zm0 0"/><path d="m184.132812 415.4375c-.3125-48.558594-39.996093-87.667969-88.636718-87.355469-48.640625.308594-87.820313 39.925781-87.507813 88.484375.308594 48.554688 39.992188 87.664063 88.632813 87.355469 48.640625-.3125 87.820312-39.925781 87.511718-88.484375zm0 0" fill="#fdd762"/><path d="m96.050781 511.910156c-52.679687 0-95.710937-42.625-96.04687475-95.304687-.16796825-25.625 9.67187475-49.773438 27.70312475-68.007813 18.03125-18.222656 42.085938-28.359375 67.742188-28.519531h.632812c52.6875 0 95.71875 42.625 96.054688 95.304687.167969 25.625-9.671875 49.773438-27.710938 68.007813-18.023437 18.222656-42.085937 28.359375-67.742187 28.519531-.210938 0-.417969 0-.632813 0zm.03125-175.839844c-.175781 0-.351562 0-.519531 0-21.390625.136719-41.449219 8.582032-56.480469 23.777344-15.015625 15.191406-23.214843 35.308594-23.078125 56.65625.277344 43.894532 36.140625 79.40625 80.046875 79.40625h.519531c21.390626-.136718 41.457032-8.585937 56.480469-23.777344 15.023438-15.191406 23.222657-35.3125 23.085938-56.65625-.277344-43.894531-36.152344-79.40625-80.054688-79.40625zm0 0"/><path d="m504.140625 415.441406c-.3125-48.554687-39.996094-87.667968-88.636719-87.355468s-87.820312 39.925781-87.507812 88.484374c.308594 48.558594 39.992187 87.667969 88.632812 87.355469 48.640625-.308593 87.820313-39.925781 87.511719-88.484375zm0 0" fill="#b5d88a"/><path d="m504.140625 415.441406c-.3125-48.554687-39.996094-87.667968-88.636719-87.355468s-87.820312 39.925781-87.507812 88.484374c.308594 48.558594 39.992187 87.667969 88.632812 87.355469 48.640625-.308593 87.820313-39.925781 87.511719-88.484375zm0 0" fill="#fdd762"/><path d="m416.050781 511.910156c-52.679687 0-95.710937-42.625-96.046875-95.304687-.167968-25.625 9.671875-49.773438 27.703125-68.007813 18.03125-18.222656 42.085938-28.359375 67.742188-28.519531h.632812c52.6875 0 95.71875 42.625 96.054688 95.304687.167969 25.625-9.671875 49.773438-27.710938 68.007813-18.023437 18.222656-42.085937 28.359375-67.742187 28.519531-.210938 0-.417969 0-.632813 0zm.03125-175.839844c-.175781 0-.351562 0-.519531 0-21.390625.136719-41.449219 8.582032-56.480469 23.777344-15.015625 15.191406-23.214843 35.308594-23.078125 56.65625.277344 43.894532 36.140625 79.40625 80.046875 79.40625h.519531c21.390626-.136718 41.457032-8.585937 56.480469-23.777344 15.023438-15.191406 23.222657-35.3125 23.085938-56.65625-.277344-43.894531-36.152344-79.40625-80.054688-79.40625zm0 0"/><path d="m416.082031 320.070312c-.207031 0-.425781 0-.632812 0-25.65625.167969-49.710938 10.296876-67.742188 28.519532-18.03125 18.230468-27.863281 42.382812-27.703125 68.007812.335938 52.679688 43.367188 95.304688 96.046875 95.304688h.632813c25.65625-.167969 49.71875-10.296875 67.742187-28.519532 18.039063-18.234374 27.871094-42.382812 27.710938-68.007812-.335938-52.679688-43.367188-95.304688-96.054688-95.304688zm-57 39.777344c15.03125-15.195312 35.089844-23.640625 56.480469-23.777344h.519531c43.902344 0 79.777344 35.511719 80.054688 79.40625.074219 11.386719-2.285157 22.386719-6.726563 32.511719h-33.273437v-72c0-3.832031-2.71875-7.125-6.488281-7.855469-3.71875-.710937-7.511719 1.320313-8.941407 4.882813l-24.570312 61.4375-24.566407-61.429687c-1.433593-3.570313-5.25-5.601563-8.945312-4.882813-3.765625.722656-6.488281 4.015625-6.488281 7.847656v72h-33.40625c-4.25-9.652343-6.65625-20.285156-6.726563-31.484375-.136718-21.347656 8.0625-41.464844 23.078125-56.65625zm57.496094 136.0625c-.167969 0-.34375 0-.519531 0-26.066406 0-49.214844-12.566406-63.847656-31.921875h31.925781c4.425781 0 8-3.582031 8-8v-38.460937l16.570312 41.429687c1.222657 3.042969 4.160157 5.03125 7.429688 5.03125 3.273437 0 6.210937-1.988281 7.433593-5.023437l16.566407-41.4375v38.460937c0 4.417969 3.578125 8 8 8h31.855469c-2.140626 2.832031-4.40625 5.578125-6.941407 8.144531-15.023437 15.191407-35.082031 23.640626-56.472656 23.777344zm0 0"/><path d="m184.136719 95.429688c-.308594-48.554688-39.992188-87.667969-88.632813-87.355469s-87.820312 39.925781-87.511718 88.484375c.3125 48.554687 39.996093 87.667968 88.636718 87.355468s87.820313-39.925781 87.507813-88.484374zm0 0" fill="#fdd762"/><path d="m96.050781 191.910156c-52.679687 0-95.710937-42.625-96.04687475-95.304687-.16796825-25.625 9.67187475-49.773438 27.70312475-68.007813 18.03125-18.230468 42.085938-28.359375 67.742188-28.5273435h.632812c52.6875 0 95.71875 42.6249995 96.054688 95.3046875.167969 25.625-9.671875 49.773438-27.710938 68.007812-18.023437 18.222657-42.085937 28.359376-67.742187 28.519532-.210938.007812-.417969.007812-.632813.007812zm.03125-175.839844c-.175781 0-.351562 0-.519531 0-21.390625.136719-41.449219 8.582032-56.480469 23.777344-15.015625 15.191406-23.214843 35.308594-23.078125 56.65625.277344 43.894532 36.140625 79.40625 80.046875 79.40625h.519531c21.390626-.136718 41.457032-8.585937 56.480469-23.777344 15.023438-15.191406 23.222657-35.3125 23.085938-56.65625-.277344-43.894531-36.152344-79.40625-80.054688-79.40625zm0 0"/><path d="m136.136719 127.988281h-55.351563l53.601563-67c1.917969-2.398437 2.289062-5.6875.960937-8.460937-1.335937-2.777344-4.128906-4.539063-7.210937-4.539063h-24.046875l.046875-15.972656-16-.050781-.046875 16.023437h-31.953125v16h55.351562l-53.597656 67c-1.921875 2.402344-2.289063 5.691407-.960937 8.464844 1.335937 2.777344 4.128906 4.535156 7.207031 4.535156h23.976562l-.046875 15.976563 16 .050781.046875-16.027344h32.023438zm0 0"/><path d="m328.136719 295.988281v-78.613281l45.3125-40.207031-10.625-11.96875-45.542969 40.414062-57.558594-28.78125c-2.25-1.128906-4.90625-1.128906-7.160156 0l-59.160156 29.574219-46.441406-41.214844-10.621094 11.964844 47.796875 42.433594v75.992187l-47.804688 42.425781 10.621094 11.964844 48.746094-43.253906 56.855469 28.429688c1.128906.5625 2.359374.839843 3.582031.839843 1.226562 0 2.457031-.277343 3.578125-.839843l55.261718-27.628907 47.847657 42.453125 10.625-11.964844-45.535157-40.410156c.105469-.527344.222657-1.054687.222657-1.609375zm-72-103.054687 46.113281 23.054687-46.113281 23.058594-46.109375-23.058594zm-56 36 48 24v62.113281l-48-24zm112 62.113281-48 24v-62.113281l48-24zm0 0"/><path d="m136.136719 247.988281h-32v-40h-16v96h16v-40h32zm0 0"/><path d="m152.136719 247.988281h16v16h-16zm0 0"/><path d="m408.136719 207.988281v40h-32v16h32v40h16v-96zm0 0"/><path d="m344.136719 247.988281h16v16h-16zm0 0"/><path d="m304.136719 79.988281h-96v16h40v32h16v-32h40zm0 0"/><path d="m248.136719 143.988281h16v16h-16zm0 0"/><path d="m264.136719 415.988281v-32h-16v32h-40v16h96v-16zm0 0"/><path d="m248.136719 351.988281h16v16h-16zm0 0"/><path d="m144.136719 399.988281c0-13.230469-10.765625-24-24-24h-8v-16h-16v16h-8v-16h-16v16h-24v16h8v48h-8v16h24v16h16v-16h8v16h16v-16h8c13.234375 0 24-10.765625 24-24 0-6.167969-2.40625-11.742187-6.238281-16 3.832031-4.253906 6.238281-9.832031 6.238281-16zm-72-8h48c4.417969 0 8 3.59375 8 8 0 4.410157-3.582031 8-8 8h-48zm48 48h-48v-16h48c4.417969 0 8 3.59375 8 8 0 4.410157-3.582031 8-8 8zm0 0"/></svg>