<?xml version="1.0" encoding="iso-8859-1"?>
<!-- Generator: Adobe Illustrator 21.0.0, SVG Export Plug-In . SVG Version: 6.00 Build 0)  -->
<svg version="1.1" id="Capa_1" xmlns="http://www.w3.org/2000/svg" xmlns:xlink="http://www.w3.org/1999/xlink" x="0px" y="0px"
	 viewBox="0 0 512 512" style="enable-background:new 0 0 512 512;" xml:space="preserve">
<polygon style="fill:#3398D6;" points="464.89,416.299 376.726,504.462 376.726,416.299 "/>
<polygon style="fill:#49AAEE;" points="464.89,7.538 464.89,416.299 376.726,416.299 376.726,504.462 48.115,504.462 48.115,7.538 
	"/>
<rect x="48.115" y="7.538" style="fill:#3398D6;" width="88.16" height="496.929"/>
<polygon style="fill:#D0D7DF;" points="336.652,328.135 336.652,392.254 288.562,440.344 240.472,392.254 240.472,328.135 
	288.562,280.045 "/>
<polygon style="fill:#F1F2F2;" points="288.562,215.925 288.562,280.045 240.472,328.135 192.383,280.045 192.383,215.925 
	240.472,167.836 "/>
<polygon style="fill:#D0D7DF;" points="192.383,215.925 192.383,280.045 144.293,328.135 96.203,280.045 96.203,215.925 
	144.293,167.836 "/>
<polygon style="fill:#F1F2F2;" points="240.472,103.716 240.472,167.836 192.383,215.925 144.293,167.836 144.293,103.716 
	192.383,55.627 "/>
<g>
	<polygon style="fill:#D0D7DF;" points="176.353,103.716 208.413,71.657 192.383,55.627 144.293,103.716 144.293,167.836 
		192.383,215.925 208.413,199.896 176.353,167.836 	"/>
	<polygon style="fill:#D0D7DF;" points="224.442,215.925 256.502,183.866 240.472,167.836 192.383,215.925 192.383,280.045 
		240.472,328.135 256.502,312.105 224.442,280.045 	"/>
</g>
<g>
	<polygon style="fill:#A4B0C0;" points="128.263,215.925 160.323,183.866 144.293,167.836 96.203,215.925 96.203,280.045 
		144.293,328.135 160.323,312.105 128.263,280.045 	"/>
	<polygon style="fill:#A4B0C0;" points="272.532,328.135 304.592,296.075 288.562,280.045 240.472,328.135 240.472,392.254 
		288.562,440.344 304.592,424.314 272.532,392.254 	"/>
</g>
<g>
	<polygon style="fill:#231F20;" points="55.15,15.075 272.029,15.075 272.029,0 40.074,0 40.074,87.686 55.15,87.686 	"/>
	<polygon style="fill:#231F20;" points="456.85,413.176 383.761,486.266 383.761,423.836 432.327,423.836 432.327,408.761 
		368.686,408.761 368.686,496.925 55.15,496.925 55.15,111.731 40.074,111.731 40.074,512 379.346,512 471.926,419.42 
		471.926,199.895 456.85,199.895 	"/>
	<polygon style="fill:#231F20;" points="296.074,0 296.074,15.075 456.85,15.075 456.85,175.851 471.926,175.851 471.926,0 	"/>
	<path style="fill:#231F20;" d="M314.789,402.954l10.66,10.658l18.237-18.237v-70.364l-48.09-48.089v-64.12l-48.09-48.09v-64.12
		l-55.627-55.627l-55.627,55.627v64.119l-48.09,48.091v11.137h15.075v-4.892l40.552-40.551l40.551,40.552v57.874l-40.552,40.552
		l-40.552-40.551v-28.938H88.16v35.182l55.627,55.626l48.09-48.088l40.551,40.551v64.119l55.627,55.627l21.36-21.359l-10.658-10.66
		l-10.7,10.699l-40.552-40.552v-57.876l40.552-40.551l40.552,40.551v57.876L314.789,402.954z M151.328,164.715v-57.876
		l40.552-40.552l40.552,40.552v57.876l-40.551,40.551L151.328,164.715z M280.522,276.923l-40.551,40.551l-40.552-40.55v-57.876
		l40.552-40.552l40.552,40.552v57.875H280.522z"/>
</g>
<g>
	<polygon style="fill:#FFFFFF;" points="168.313,116.625 168.313,143.791 183.388,143.791 183.388,122.869 197.21,109.046 
		186.55,98.387 	"/>
	<polygon style="fill:#FFFFFF;" points="149.12,221.256 138.46,210.595 120.224,228.832 120.224,256.001 135.299,256.001 
		135.299,235.077 	"/>
	<polygon style="fill:#FFFFFF;" points="216.403,228.832 216.403,256.001 231.478,256.001 231.478,235.077 245.3,221.256 
		234.639,210.595 	"/>
	<polygon style="fill:#FFFFFF;" points="264.492,341.042 264.492,368.209 279.567,368.209 279.567,347.286 293.389,333.463 
		282.729,322.804 	"/>
</g>
<polygon style="fill:#231F20;" points="258.684,82.356 269.344,93.017 291.181,71.179 328.134,71.179 328.134,56.104 
	284.937,56.104 "/>
<rect x="344.166" y="56.104" style="fill:#FFFFFF;" width="16.029" height="15.075"/>
<rect x="344.166" y="152.28" style="fill:#231F20;" width="16.029" height="15.075"/>
<rect x="376.226" y="56.104" style="fill:#FFFFFF;" width="16.03" height="15.075"/>
<g>
	<rect x="408.286" y="56.104" style="fill:#231F20;" width="16.03" height="15.075"/>
	<rect x="344.166" y="88.16" style="fill:#231F20;" width="80.15" height="15.075"/>
</g>
<g>
	<rect x="344.166" y="120.22" style="fill:#FFFFFF;" width="40.074" height="15.075"/>
	<polygon style="fill:#FFFFFF;" points="80.149,424.314 80.149,471.925 143.791,471.925 143.791,456.85 95.225,456.85 
		95.225,424.314 	"/>
</g>
<g>
	<rect x="159.817" y="456.849" style="fill:#231F20;" width="16.03" height="15.075"/>
	<rect x="159.817" y="424.789" style="fill:#231F20;" width="16.03" height="15.075"/>
</g>
<rect x="127.757" y="424.789" style="fill:#FFFFFF;" width="16.029" height="15.075"/>
<g>
</g>
<g>
</g>
<g>
</g>
<g>
</g>
<g>
</g>
<g>
</g>
<g>
</g>
<g>
</g>
<g>
</g>
<g>
</g>
<g>
</g>
<g>
</g>
<g>
</g>
<g>
</g>
<g>
</g>
</svg>
