<svg height="496pt" viewBox="0 0 496 496" width="496pt" xmlns="http://www.w3.org/2000/svg"><path d="m448 276.289062c0-19.625-3.152344-39.015624-9.359375-57.648437-15.023437-45.097656-22.640625-92.046875-22.640625-139.550781v-65.699219l-45.527344 13.007813c-38.351562 10.96875-80.617187 5.386718-114.808594-15.132813l-7.664062-4.59375-7.671875 4.59375c-34.175781 20.519531-76.441406 26.09375-114.800781 15.132813l-45.527344-13.007813v65.699219c0 47.503906-7.617188 94.453125-22.640625 139.550781-6.207031 18.632813-9.359375 38.023437-9.359375 57.648437 0 69.496094 38.609375 131.96875 100.769531 163.039063l99.230469 49.617187 99.230469-49.617187c62.160156-31.082031 100.769531-93.550781 100.769531-163.039063zm-107.921875 148.726563-84.078125 42.039063v-43.054688h-16v43.054688l-84.078125-42.039063c-56.707031-28.351563-91.921875-85.34375-91.921875-148.726563 0-17.898437 2.871094-35.59375 8.527344-52.59375 15.578125-46.726562 23.472656-95.375 23.472656-144.605468v-44.480469l25.144531 7.175781c39.457031 11.285156 82.558594 6.589844 118.855469-12.257812v122.472656h16v-122.472656c36.304688 18.839844 79.390625 23.542968 118.855469 12.257812l25.144531-7.175781v44.488281c0 49.222656 7.894531 97.878906 23.472656 144.605469 5.65625 16.992187 8.527344 34.679687 8.527344 52.585937 0 63.382813-35.214844 120.375-91.921875 148.726563zm0 0"/><path d="m240 344h16v64h-16zm0 0"/><path d="m112 96h16v16h-16zm0 0"/><path d="m128 128h-16v72h56v-16h-40zm0 0"/><path d="m112 360h16v16h-16zm0 0"/><path d="m112 344h16v-40h40v-16h-56zm0 0"/><path d="m80 240h16v16h-16zm0 0"/><path d="m112 240h40v16h-40zm0 0"/><path d="m368 96h16v16h-16zm0 0"/><path d="m368 184h-40v16h56v-72h-16zm0 0"/><path d="m368 360h16v16h-16zm0 0"/><path d="m328 304h40v40h16v-56h-56zm0 0"/><path d="m400 240h16v16h-16zm0 0"/><path d="m344 240h40v16h-40zm0 0"/><path d="m352 248c0 57.4375-46.5625 104-104 104s-104-46.5625-104-104 46.5625-104 104-104 104 46.5625 104 104zm0 0" fill="#f0bc5e"/><path d="m16 448h16v16h-16zm0 0"/><path d="m0 464h16v16h-16zm0 0"/><path d="m16 480h16v16h-16zm0 0"/><path d="m32 464h16v16h-16zm0 0"/><path d="m96 456h16v16h-16zm0 0"/><path d="m32 384h16v16h-16zm0 0"/><path d="m464 448h16v16h-16zm0 0"/><path d="m480 464h16v16h-16zm0 0"/><path d="m464 480h16v16h-16zm0 0"/><path d="m448 464h16v16h-16zm0 0"/><path d="m384 456h16v16h-16zm0 0"/><path d="m448 384h16v16h-16zm0 0"/><path d="m16 32h16v16h-16zm0 0"/><path d="m0 16h16v16h-16zm0 0"/><path d="m16 0h16v16h-16zm0 0"/><path d="m32 16h16v16h-16zm0 0"/><path d="m32 96h16v16h-16zm0 0"/><path d="m256 192h-8v-16h-16v16h-24v112h24v16h16v-16h8c17.648438 0 32-14.351562 32-32 0-9.542969-4.199219-18.136719-10.855469-24 6.65625-5.863281 10.855469-14.457031 10.855469-24 0-17.648438-14.351562-32-32-32zm0 96h-32v-32h32c8.824219 0 16 7.175781 16 16s-7.175781 16-16 16zm0-48h-32v-32h32c8.824219 0 16 7.175781 16 16s-7.175781 16-16 16zm0 0"/><path d="m464 32h16v16h-16zm0 0"/><path d="m480 16h16v16h-16zm0 0"/><path d="m464 0h16v16h-16zm0 0"/><path d="m448 16h16v16h-16zm0 0"/><path d="m448 96h16v16h-16zm0 0"/></svg>