<?xml version="1.0" encoding="iso-8859-1"?>
<!-- Generator: Adobe Illustrator 22.0.0, SVG Export Plug-In . SVG Version: 6.00 Build 0)  -->
<svg xmlns="http://www.w3.org/2000/svg" xmlns:xlink="http://www.w3.org/1999/xlink" version="1.1" x="0px" y="0px" viewBox="0 0 58 58" style="enable-background:new 0 0 58 58;" xml:space="preserve" width="512" height="512">
<g id="_x32_1-Crypto_Web">
	<path d="M21.234,22.234c-0.256,0-0.512-0.098-0.707-0.293l-4.163-4.163c-0.391-0.391-0.391-1.023,0-1.414   c0.39-0.391,1.024-0.391,1.414,0l4.163,4.163c0.391,0.391,0.391,1.023,0,1.414C21.746,22.136,21.49,22.234,21.234,22.234z"/>
	<path style="fill:#AFB6BB;" d="M21.234,22.234c-0.256,0-0.512-0.098-0.707-0.293l-4.163-4.163c-0.391-0.391-0.391-1.023,0-1.414   c0.39-0.391,1.024-0.391,1.414,0l4.163,4.163c0.391,0.391,0.391,1.023,0,1.414C21.746,22.136,21.49,22.234,21.234,22.234z"/>
	<path d="M36.766,22.234c-0.256,0-0.512-0.098-0.707-0.293c-0.391-0.391-0.391-1.023,0-1.414l4.163-4.163   c0.39-0.391,1.024-0.391,1.414,0c0.391,0.391,0.391,1.023,0,1.414l-4.163,4.163C37.278,22.136,37.022,22.234,36.766,22.234z"/>
	<path style="fill:#AFB6BB;" d="M36.766,22.234c-0.256,0-0.512-0.098-0.707-0.293c-0.391-0.391-0.391-1.023,0-1.414l4.163-4.163   c0.39-0.391,1.024-0.391,1.414,0c0.391,0.391,0.391,1.023,0,1.414l-4.163,4.163C37.278,22.136,37.022,22.234,36.766,22.234z"/>
	<path d="M40.929,41.929c-0.256,0-0.512-0.098-0.707-0.293l-4.163-4.163c-0.391-0.391-0.391-1.023,0-1.414   c0.39-0.391,1.024-0.391,1.414,0l4.163,4.163c0.391,0.391,0.391,1.023,0,1.414C41.441,41.832,41.185,41.929,40.929,41.929z"/>
	<path style="fill:#AFB6BB;" d="M40.929,41.929c-0.256,0-0.512-0.098-0.707-0.293l-4.163-4.163c-0.391-0.391-0.391-1.023,0-1.414   c0.39-0.391,1.024-0.391,1.414,0l4.163,4.163c0.391,0.391,0.391,1.023,0,1.414C41.441,41.832,41.185,41.929,40.929,41.929z"/>
	<path d="M17.071,41.929c-0.256,0-0.512-0.098-0.707-0.293c-0.391-0.391-0.391-1.023,0-1.414l4.163-4.163   c0.39-0.391,1.024-0.391,1.414,0c0.391,0.391,0.391,1.023,0,1.414l-4.163,4.163C17.583,41.832,17.327,41.929,17.071,41.929z"/>
	<path style="fill:#AFB6BB;" d="M17.071,41.929c-0.256,0-0.512-0.098-0.707-0.293c-0.391-0.391-0.391-1.023,0-1.414l4.163-4.163   c0.39-0.391,1.024-0.391,1.414,0c0.391,0.391,0.391,1.023,0,1.414l-4.163,4.163C17.583,41.832,17.327,41.929,17.071,41.929z"/>
	<path style="fill:#5469E0;" d="M10,0C4.477,0,0,4.477,0,10c0,3.699,2.014,6.921,5,8.651l10-0.002c2.987-1.727,5-4.95,5-8.649   C20,4.477,15.523,0,10,0z"/>
	<circle style="fill:#FFFFFF;" cx="10" cy="7" r="3"/>
	<path style="fill:#FFFFFF;" d="M12.901,14H7.099C5.94,14,5,14.902,5,16.015v2.636C6.472,19.504,8.176,20,10,20s3.528-0.496,5-1.349   v-2.636C15,14.902,14.06,14,12.901,14z"/>
	<path style="fill:#5469E0;" d="M48,0c-5.523,0-10,4.477-10,10c0,3.699,2.014,6.921,5,8.651l10-0.002c2.987-1.727,5-4.95,5-8.649   C58,4.477,53.523,0,48,0z"/>
	<circle style="fill:#FFFFFF;" cx="48" cy="7" r="3"/>
	<path style="fill:#FFFFFF;" d="M50.901,14h-5.802C43.94,14,43,14.902,43,16.015v2.636C44.472,19.504,46.176,20,48,20   s3.528-0.496,5-1.349v-2.636C53,14.902,52.06,14,50.901,14z"/>
	<path style="fill:#5469E0;" d="M10,38C4.477,38,0,42.477,0,48c0,3.699,2.014,6.921,5,8.651l10-0.002c2.987-1.727,5-4.95,5-8.649   C20,42.477,15.523,38,10,38z"/>
	<circle style="fill:#FFFFFF;" cx="10" cy="45" r="3"/>
	<path style="fill:#FFFFFF;" d="M12.901,52H7.099C5.94,52,5,52.902,5,54.015v2.636C6.472,57.504,8.176,58,10,58s3.528-0.496,5-1.349   v-2.636C15,52.902,14.06,52,12.901,52z"/>
	<path style="fill:#5469E0;" d="M48,38c-5.523,0-10,4.477-10,10c0,3.699,2.014,6.921,5,8.651l10-0.002c2.987-1.727,5-4.95,5-8.649   C58,42.477,53.523,38,48,38z"/>
	<circle style="fill:#FFFFFF;" cx="48" cy="45" r="3"/>
	<path style="fill:#FFFFFF;" d="M50.901,52h-5.802C43.94,52,43,52.902,43,54.015v2.636C44.472,57.504,46.176,58,48,58   s3.528-0.496,5-1.349v-2.636C53,52.902,52.06,52,50.901,52z"/>
	<circle style="fill:#9EEBF9;" cx="29" cy="29" r="11"/>
	<polygon style="fill:#5469E0;" points="34,31 29,32 24,31 29,22  "/>
	<polygon style="fill:#3E53AD;" points="34,31 29,29 24,31 29,36  "/>
</g>

</svg>
