<svg height="496pt" viewBox="0 0 496 496" width="496pt" xmlns="http://www.w3.org/2000/svg"><path d="m440 112c0 2.71875-.160156 5.359375-.320312 8l-.078126.558594c27.359376 3.679687 48.398438 27.042968 48.398438 55.441406 0 30.960938-25.039062 56-56 56h-88v-32c4.398438 0 8-3.601562 8-8v-48c0-4.398438-3.601562-8-8-8h-192c-4.398438 0-8 3.601562-8 8v48c0 4.398438 3.601562 8 8 8v32h-88c-30.960938 0-56-25.039062-56-56s25.039062-56 56-56c2.71875 0 5.359375.160156 7.921875.640625l.078125-.640625c0-61.839844 50.160156-112 112-112 40.398438 0 75.921875 21.441406 95.601562 53.601562l.398438-.242187c15.921875-22.558594 42.238281-37.359375 72-37.359375 48.640625 0 88 39.359375 88 88zm0 0" fill="#e6e9ed"/><path d="m152 392h192v32h-192zm0 0" fill="#ffeaa7"/><path d="m152 296h192v32h-192zm0 0" fill="#ffeaa7"/><path d="m344 200v32h-192v-32zm0 0" fill="#ffeaa7"/><g fill="#b4dd7f"><path d="m152 424h192c4.398438 0 8 3.601562 8 8v48c0 4.398438-3.601562 8-8 8h-192c-4.398438 0-8-3.601562-8-8v-48c0-4.398438 3.601562-8 8-8zm0 0"/><path d="m152 328h192c4.398438 0 8 3.601562 8 8v48c0 4.398438-3.601562 8-8 8h-192c-4.398438 0-8-3.601562-8-8v-48c0-4.398438 3.601562-8 8-8zm0 0"/><path d="m160 232h184c4.398438 0 8 3.601562 8 8v48c0 4.398438-3.601562 8-8 8h-192c-4.398438 0-8-3.601562-8-8v-48c0-4.398438 3.601562-8 8-8zm0 0"/><path d="m152 136h192c4.398438 0 8 3.601562 8 8v48c0 4.398438-3.601562 8-8 8h-192c-4.398438 0-8-3.601562-8-8v-48c0-4.398438 3.601562-8 8-8zm0 0"/></g><path d="m488 312c0 8.835938-7.164062 16-16 16s-16-7.164062-16-16 7.164062-16 16-16 16 7.164062 16 16zm0 0" fill="#ef7385"/><path d="m488 472c0 8.835938-7.164062 16-16 16s-16-7.164062-16-16 7.164062-16 16-16 16 7.164062 16 16zm0 0" fill="#ef7385"/><path d="m40 472c0 8.835938-7.164062 16-16 16s-16-7.164062-16-16 7.164062-16 16-16 16 7.164062 16 16zm0 0" fill="#ef7385"/><path d="m40 312c0 8.835938-7.164062 16-16 16s-16-7.164062-16-16 7.164062-16 16-16 16 7.164062 16 16zm0 0" fill="#ef7385"/><path d="m344 128h-192c-8.824219 0-16 7.175781-16 16v48c0 5.894531 3.238281 11 8 13.777344v20.445312c-4.761719 2.777344-8 7.882813-8 13.777344v48c0 5.894531 3.238281 11 8 13.777344v20.445312c-4.761719 2.777344-8 7.882813-8 13.777344v48c0 5.894531 3.238281 11 8 13.777344v20.445312c-4.761719 2.777344-8 7.882813-8 13.777344v48c0 8.824219 7.175781 16 16 16h192c8.824219 0 16-7.175781 16-16v-48c0-5.894531-3.238281-11-8-13.777344v-20.445312c4.761719-2.777344 8-7.882813 8-13.777344v-48c0-5.894531-3.238281-11-8-13.777344v-20.445312c4.761719-2.777344 8-7.882813 8-13.777344v-48c0-5.894531-3.238281-11-8-13.777344v-20.445312c4.761719-2.777344 8-7.882813 8-13.777344v-48c0-8.824219-7.175781-16-16-16zm-192 16h192l.007812 48h-192.007812zm8 272v-16h176v16zm-8-32v-48h192l.007812 48zm8-64v-16h176v16zm-8-32v-48h192l.007812 48zm8-64v-16h176v16zm-8 256v-48h192l.007812 48zm0 0"/><path d="m72 368h16v16h-16zm0 0"/><path d="m72 400h16v16h-16zm0 0"/><path d="m408 368h16v16h-16zm0 0"/><path d="m424 320h25.472656c3.3125 9.289062 12.113282 16 22.527344 16 13.230469 0 24-10.769531 24-24s-10.769531-24-24-24c-10.414062 0-19.214844 6.710938-22.527344 16h-25.472656v-64h8c35.289062 0 64-28.710938 64-64 0-29.792969-20.488281-54.816406-48.097656-61.921875.019531-.695313.097656-1.375.097656-2.078125 0-52.9375-43.0625-96-96-96-27.632812 0-53.785156 12.007812-71.910156 32.488281-22.105469-29.496093-57.289063-48.488281-96.089844-48.488281-63.472656 0-115.457031 49.574219-119.59375 112.023438-.132812-.007813-.269531-.023438-.40625-.023438-35.289062 0-64 28.710938-64 64s28.710938 64 64 64h8v64h-25.472656c-3.3125-9.289062-12.113282-16-22.527344-16-13.230469 0-24 10.769531-24 24s10.769531 24 24 24c10.414062 0 19.214844-6.710938 22.527344-16h25.472656v32h16v-72h16v184h-16v-32h-16v32h-25.472656c-3.3125-9.289062-12.113282-16-22.527344-16-13.230469 0-24 10.769531-24 24s10.769531 24 24 24c10.414062 0 19.214844-6.710938 22.527344-16h57.472656v16h16v-288h-16v56h-16v-40h-24c-26.472656 0-48-21.527344-48-48s21.527344-48 48-48c13.007812 0 25.183594 5.121094 34.289062 14.40625l11.429688-11.191406c-8.222656-8.398438-18.359375-14.167969-29.421875-17.054688 3.054687-54.625 48.328125-98.160156 103.703125-98.160156 51.414062 0 95.671875 38.320312 102.953125 89.136719l15.832031-2.265625c-2.074218-14.464844-6.753906-28.039063-13.503906-40.296875 15.132812-19.160157 38.199219-30.574219 62.71875-30.574219 44.113281 0 80 35.886719 80 80-17.34375 0-33.585938 6.824219-45.71875 19.214844l11.429688 11.191406c9.105468-9.285156 21.28125-14.40625 34.289062-14.40625 26.472656 0 48 21.527344 48 48s-21.527344 48-48 48h-24v40h-16v-56h-16v288h16v-16h57.472656c3.3125 9.289062 12.113282 16 22.527344 16 13.230469 0 24-10.769531 24-24s-10.769531-24-24-24c-10.414062 0-19.214844 6.710938-22.527344 16h-25.472656v-32h-16v32h-16v-184h16v72h16zm48-16c4.40625 0 8 3.585938 8 8s-3.59375 8-8 8-8-3.585938-8-8 3.59375-8 8-8zm-448 16c-4.40625 0-8-3.585938-8-8s3.59375-8 8-8 8 3.585938 8 8-3.59375 8-8 8zm0 160c-4.40625 0-8-3.585938-8-8s3.59375-8 8-8 8 3.585938 8 8-3.59375 8-8 8zm448-16c4.40625 0 8 3.585938 8 8s-3.59375 8-8 8-8-3.585938-8-8 3.59375-8 8-8zm0 0"/><path d="m408 400h16v16h-16zm0 0"/><path d="m168 160h16v16h-16zm0 0"/><path d="m200 160h16v16h-16zm0 0"/><path d="m280 256h16v16h-16zm0 0"/><path d="m312 256h16v16h-16zm0 0"/><path d="m160 352h16v16h-16zm0 0"/><path d="m192 352h16v16h-16zm0 0"/><path d="m280 448h16v16h-16zm0 0"/><path d="m312 448h16v16h-16zm0 0"/></svg>