<svg height="512pt" viewBox="-72 0 512 512" width="512pt" xmlns="http://www.w3.org/2000/svg"><path d="m138.671875 512c-17.070313 0-30.90625-13.835938-30.90625-30.90625v-120.015625h61.8125v120.015625c0 17.070312-13.835937 30.90625-30.90625 30.90625zm0 0" fill="#6d6670"/><path d="m138.671875 361.078125v120.015625c0 11.4375-6.21875 21.417969-15.453125 26.761719 4.546875 2.628906 9.820312 4.144531 15.453125 4.144531 17.070313 0 30.90625-13.835938 30.90625-30.90625v-120.015625zm0 0" fill="#5b545f"/><path d="m229.328125 512c-17.070313 0-30.90625-13.835938-30.90625-30.90625v-120.015625h61.8125v120.015625c0 17.070312-13.835937 30.90625-30.90625 30.90625zm0 0" fill="#6d6670"/><path d="m229.328125 361.078125v120.015625c0 11.4375-6.21875 21.417969-15.453125 26.761719 4.546875 2.628906 9.820312 4.144531 15.453125 4.144531 17.070313 0 30.90625-13.835938 30.90625-30.90625v-120.015625zm0 0" fill="#5b545f"/><path d="m111.886719 284.5h144.226562v60.441406h-144.226562zm0 0" fill="#6d6670"/><path d="m225.207031 284.5h30.90625v60.441406h-30.90625zm0 0" fill="#5b545f"/><path d="m30 389.925781c-16.5 0-30-13.5-30-30v-146.039062c0-16.5 13.5-30 30-30s30 13.5 30 30v146.035156c0 16.503906-13.5 30.003906-30 30.003906zm0 0" fill="#6d6670"/><path d="m30 183.886719c-5.457031 0-10.578125 1.527343-15 4.179687 8.945312 5.363282 15 15.347656 15 26.726563v144.222656c0 11.378906-6.054688 21.363281-15 26.726563 4.421875 2.652343 9.542969 4.179687 15 4.179687 16.5 0 30-13.90625 30-30.90625v-144.222656c0-16.996094-13.5-30.90625-30-30.90625zm0 0" fill="#5b545f"/><path d="m338 389.925781c-16.5 0-30-13.5-30-30v-146.039062c0-16.5 13.5-30 30-30s30 13.5 30 30v146.035156c0 16.503906-13.5 30.003906-30 30.003906zm0 0" fill="#6d6670"/><path d="m338 183.886719c-5.457031 0-10.578125 1.527343-15 4.179687 8.945312 5.363282 15 15.347656 15 26.726563v144.222656c0 11.378906-6.054688 21.363281-15 26.726563 4.421875 2.652343 9.542969 4.179687 15 4.179687 16.5 0 30-13.90625 30-30.90625v-144.222656c0-16.996094-13.5-30.90625-30-30.90625zm0 0" fill="#5b545f"/><path d="m0 288.964844h60v41.207031h-60zm0 0" fill="#71f6fc"/><path d="m30 288.964844h30v41.207031h-30zm0 0" fill="#3be3eb"/><path d="m308 288.964844h60v41.207031h-60zm0 0" fill="#71f6fc"/><path d="m338 288.964844h30v41.207031h-30zm0 0" fill="#3be3eb"/><path d="m268.476562 391.984375h-168.953124c-5.6875 0-10.300782-4.613281-10.300782-10.300781v-41.207032c0-5.691406 4.613282-10.304687 10.300782-10.304687h168.953124c5.6875 0 10.300782 4.613281 10.300782 10.304687v41.207032c0 5.6875-4.613282 10.300781-10.300782 10.300781zm0 0" fill="#e1eaf0"/><path d="m268.476562 330.171875h-30.90625c5.691407 0 10.300782 4.613281 10.300782 10.304687v41.207032c0 5.6875-4.609375 10.300781-10.300782 10.300781h30.90625c5.6875 0 10.300782-4.613281 10.300782-10.300781v-41.207032c0-5.691406-4.613282-10.304687-10.300782-10.304687zm0 0" fill="#cfd8e0"/><path d="m153.777344 115.832031h61.8125v67.601563h-61.8125zm0 0" fill="#6d6670"/><path d="m184.683594 115.832031h30.902344v67.601563h-30.902344zm0 0" fill="#5b545f"/><path d="m292.167969 299.269531h-216.335938c-9.105469 0-16.484375-7.382812-16.484375-16.484375v-100.957031c0-9.105469 7.378906-16.484375 16.484375-16.484375h216.335938c9.105469 0 16.484375 7.378906 16.484375 16.484375v100.957031c0 9.101563-7.378906 16.484375-16.484375 16.484375zm0 0" fill="#e1eaf0"/><path d="m292.167969 165.34375h-30.902344c9.101563 0 16.480469 7.378906 16.480469 16.484375v100.957031c0 9.101563-7.378906 16.484375-16.480469 16.484375h30.902344c9.105469 0 16.484375-7.382812 16.484375-16.484375v-100.957031c0-9.105469-7.378906-16.484375-16.484375-16.484375zm0 0" fill="#cfd8e0"/><path d="m240.660156 133.925781h-113.320312c-28.449219 0-51.507813-23.0625-51.507813-51.511719v-30.90625c0-28.445312 23.058594-51.507812 51.507813-51.507812h113.320312c28.449219 0 51.507813 23.0625 51.507813 51.507812v30.90625c0 28.449219-23.058594 51.511719-51.507813 51.511719zm0 0" fill="#f54558"/><path d="m240.660156 0h-30.90625c28.449219 0 51.511719 23.0625 51.511719 51.507812v30.90625c0 28.449219-23.0625 51.507813-51.511719 51.507813h30.90625c28.449219 0 51.507813-23.058594 51.507813-51.507813v-30.90625c0-28.445312-23.058594-51.507812-51.507813-51.507812zm0 0" fill="#d43b4c"/><path d="m160.304688 65.160156c0 14.792969-11.992188 26.785156-26.785157 26.785156s-26.785156-11.992187-26.785156-26.785156c0-14.792968 11.992187-26.785156 26.785156-26.785156s26.785157 11.992188 26.785157 26.785156zm0 0" fill="#ffd659"/><path d="m261.265625 65.160156c0 14.792969-11.992187 26.785156-26.785156 26.785156s-26.785157-11.992187-26.785157-26.785156c0-14.792968 11.992188-26.785156 26.785157-26.785156s26.785156 11.992188 26.785156 26.785156zm0 0" fill="#ffd659"/><path d="m133.519531 30.875c-18.902343 0-34.285156 15.378906-34.285156 34.285156 0 18.902344 15.382813 34.285156 34.285156 34.285156 18.90625 0 34.285157-15.382812 34.285157-34.285156 0-18.90625-15.378907-34.285156-34.285157-34.285156zm0 53.570312c-10.632812 0-19.285156-8.652343-19.285156-19.285156 0-10.636718 8.652344-19.285156 19.285156-19.285156 10.636719 0 19.285157 8.648438 19.285157 19.285156 0 10.632813-8.648438 19.285156-19.285157 19.285156zm0 0" fill="#6d6670"/><path d="m234.480469 30.875c-18.90625 0-34.285157 15.378906-34.285157 34.285156 0 18.902344 15.378907 34.285156 34.285157 34.285156 18.902343 0 34.285156-15.382812 34.285156-34.285156 0-18.90625-15.382813-34.285156-34.285156-34.285156zm0 53.570312c-10.636719 0-19.285157-8.652343-19.285157-19.285156 0-10.636718 8.648438-19.285156 19.285157-19.285156 10.632812 0 19.285156 8.648438 19.285156 19.285156 0 10.632813-8.652344 19.285156-19.285156 19.285156zm0 0" fill="#6d6670"/><path d="m262.292969 230.246094h-154.527344c-8.53125 0-15.453125-6.917969-15.453125-15.453125 0-8.535157 6.917969-15.453125 15.453125-15.453125h154.527344c8.535156 0 15.453125 6.917968 15.453125 15.453125 0 8.535156-6.917969 15.453125-15.453125 15.453125zm0 0" fill="#ffd659"/><path d="m262.292969 191.839844h-154.527344c-12.65625 0-22.953125 10.296875-22.953125 22.953125s10.296875 22.953125 22.953125 22.953125h154.527344c12.65625 0 22.953125-10.296875 22.953125-22.953125s-10.296875-22.953125-22.953125-22.953125zm0 30.90625h-154.527344c-4.382813 0-7.953125-3.566406-7.953125-7.953125s3.570312-7.953125 7.953125-7.953125h154.527344c4.386719 0 7.953125 3.566406 7.953125 7.953125s-3.566406 7.953125-7.953125 7.953125zm0 0" fill="#6d6670"/><path d="m200.484375 361.078125h-32.96875c-17.066406 0-30.902344-13.835937-30.902344-30.90625h94.777344c-.003906 17.070313-13.839844 30.90625-30.90625 30.90625zm0 0" fill="#f54558"/></svg>