<?xml version="1.0" encoding="iso-8859-1"?>
<!-- Generator: Adobe Illustrator 22.1.0, SVG Export Plug-In . SVG Version: 6.00 Build 0)  -->
<svg xmlns="http://www.w3.org/2000/svg" xmlns:xlink="http://www.w3.org/1999/xlink" version="1.1" id="Layer_1_1_" x="0px" y="0px" viewBox="0 0 64 64" style="enable-background:new 0 0 64 64;" xml:space="preserve" width="512" height="512">
<linearGradient id="SVGID_1_" gradientUnits="userSpaceOnUse" x1="32" y1="63" x2="32" y2="1">
	<stop offset="0" style="stop-color:#9F2FFF"/>
	<stop offset="1" style="stop-color:#0BB1D3"/>
</linearGradient>
<path style="fill:url(#SVGID_1_);" d="M41.702,14.146l-3.848-3.848l-2.314,1.157L34.721,9h-5.441l-0.819,2.455l-2.314-1.157  l-3.848,3.848l1.158,2.315L21,17.279v5.441l2.456,0.818l-1.158,2.315l3.848,3.848l2.314-1.157L29.279,31h5.441l0.819-2.455  l2.314,1.157l3.848-3.848l-1.158-2.315L43,22.721v-5.441l-2.456-0.818L41.702,14.146z M41,18.721v2.559l-2.298,0.766l-0.168,0.445  c-0.048,0.127-0.098,0.252-0.153,0.375l-0.194,0.433l1.081,2.162l-1.809,1.809l-2.162-1.081l-0.433,0.194  c-0.125,0.056-0.251,0.105-0.379,0.155l-0.441,0.169L33.279,29h-2.559l-0.765-2.294l-0.441-0.169c-0.128-0.05-0.255-0.1-0.379-0.155  l-0.433-0.194l-2.162,1.081l-1.809-1.809l1.081-2.162l-0.194-0.433c-0.055-0.123-0.105-0.248-0.153-0.375l-0.168-0.445L23,21.279  v-2.559l2.298-0.766l0.168-0.445c0.048-0.127,0.098-0.252,0.153-0.375l0.194-0.433l-1.081-2.162l1.809-1.809l2.162,1.081  l0.433-0.194c0.125-0.056,0.251-0.105,0.379-0.155l0.441-0.169L30.721,11h2.559l0.765,2.294l0.441,0.169  c0.128,0.05,0.255,0.1,0.379,0.155l0.433,0.194l2.162-1.081l1.809,1.809l-1.081,2.162l0.194,0.433  c0.055,0.123,0.105,0.248,0.153,0.375l0.168,0.445L41,18.721z M32,15c-2.757,0-5,2.243-5,5s2.243,5,5,5s5-2.243,5-5S34.757,15,32,15  z M32,23c-1.654,0-3-1.346-3-3s1.346-3,3-3s3,1.346,3,3S33.654,23,32,23z M13,28v2h4v5h5v4h2v-4h4v4h2v-4h4v4h2v-4h4v4h2v-4h5v-5h4  v-2h-4v-4h4v-2h-4v-4h4v-2h-4v-4h4v-2h-4V5h-5V1h-2v4h-4V1h-2v4h-4V1h-2v4h-4V1h-2v4h-0.414L17,9.586V10h-4v2h4v4h-4v2h4v4h-4v2h4v4  H13z M19,10.414L22.414,7H45v26H19V10.414z M59,12h-6v2h4v39H33V41h-2v12H7V14h4v-2H5v6H1v41h26.101c0.464,2.279,2.485,4,4.899,4  s4.435-1.721,4.899-4H63V18h-4V12z M61,20v37H35v1c0,1.654-1.346,3-3,3s-3-1.346-3-3v-1H3V20h2v35h54V20H61z M9,41h20v2H9V41z   M29,47H9v-2h20V47z M9,49h20v2H9V49z M55,43H35v-2h20V43z M55,47H35v-2h20V47z M35,49h20v2H35V49z"/>
</svg>
