<?xml version="1.0" encoding="utf-8"?>
<!-- Generator: Adobe Illustrator 23.0.2, SVG Export Plug-In . SVG Version: 6.00 Build 0)  -->
<svg version="1.1" id="Capa_1" xmlns="http://www.w3.org/2000/svg" xmlns:xlink="http://www.w3.org/1999/xlink" x="0px" y="0px"
	 viewBox="0 0 1080 1080" style="enable-background:new 0 0 1080 1080;" xml:space="preserve">
<style type="text/css">
	.st0{fill:#FF4C4C;}
</style>
<g>
	<path class="st0" d="M956.9,749.2c3.51-9.18-0.78-19.33-9.96-23.04c-9.18-3.51-19.33,0.78-23.04,9.96
		c-13.47,34.16-47.05,57.2-83.75,57.2H469.82c-4.49,0-8.98,1.76-12.3,4.88L288.45,960.04V810.89c0-4.69-1.95-9.18-5.27-12.49
		c-3.32-3.32-7.81-5.27-12.49-5.27h-84.34c-49.59,0-90-40.41-90-90V304.28c0-49.59,40.41-90,90-90h401.19
		c9.76,0,17.77-8,17.77-17.77s-8-17.77-17.77-17.77H186.35c-69.11,0-125.33,56.22-125.33,125.33v399.04
		c0,69.11,56.22,125.33,125.33,125.33h66.77v172.97c0,7.03,4.29,13.47,10.74,16.2c2.15,0.98,4.69,1.37,7.03,1.37
		c4.49,0,8.98-1.76,12.3-4.88l193.86-185.66h363.31C891.3,828.66,938.16,796.64,956.9,749.2z"/>
	<path class="st0" d="M1015.27,384.91c5.27-32.99-8.39-66.57-34.75-85.51c-15.03-10.74-32.6-16.4-50.95-16.4H800.13v-92.54
		c0-41-12.1-70.67-35.92-88.05C726.54,74.7,675,90.51,672.85,91.1c-7.42,2.34-12.3,9.18-12.3,16.79v106.79
		c0,82.19-95.86,110.3-99.76,111.47c-0.39,0.2-0.78,0.39-1.17,0.39c-5.86-8.98-16.01-15.03-27.72-15.03h-99.17
		c-18.16,0-32.99,14.84-32.99,32.99v288.35c0,18.16,14.84,32.99,32.99,32.99h99.17c9.18,0,17.37-3.71,23.43-9.76
		c15.81,15.81,37.68,25.57,61.89,25.57h261.21c59.15,0,96.83-31.04,103.66-85.12L1015.27,384.91z M529.55,630.5h-94.29V347.04h94.29
		V630.5z M980.33,379.45l-33.38,212.01c0,0.2,0,0.39,0,0.59c-4.49,36.12-27.53,54.47-68.52,54.47H617.21
		c-28.89,0-52.32-23.43-52.32-52.32V360.9c1.76,0,3.51,0,5.27-0.59c5.08-1.37,125.72-36.31,125.72-145.64v-92.34
		c12.88-1.76,32.8-2.15,47.63,8.59c14.25,10.54,21.28,30.45,21.28,59.54v110.3c0,9.76,8,17.77,17.77,17.77h147.2
		c10.93,0,21.47,3.32,30.26,9.76C975.45,339.42,983.45,359.53,980.33,379.45z"/>
</g>
</svg>
