<?xml version="1.0" encoding="utf-8"?>
<!-- Generator: Adobe Illustrator 23.0.2, SVG Export Plug-In . SVG Version: 6.00 Build 0)  -->
<svg version="1.1" id="Capa_1" xmlns="http://www.w3.org/2000/svg" xmlns:xlink="http://www.w3.org/1999/xlink" x="0px" y="0px"
	 viewBox="0 0 226.08 100.79" style="enable-background:new 0 0 226.08 100.79;" xml:space="preserve">
<style type="text/css">
	.st0{fill:#FF4C4C;}
	.st1{fill:#FFFFFF;}
</style>
<rect x="544.32" y="-128.35" class="st0" width="565.94" height="357.29"/>
<g>
	<g>
		<path id="XMLID_284_" class="st0" d="M190.78,41.63h-8.49c-0.3,0-0.56-0.26-0.56-0.56V18.57c0-0.3,0.26-0.56,0.56-0.56h8.49
			c0.3,0,0.56,0.26,0.56,0.56v22.49C191.34,41.37,191.08,41.63,190.78,41.63z"/>
		<path d="M221.67,49.1c0.26-0.68-0.06-1.43-0.74-1.71c-0.68-0.26-1.43,0.06-1.71,0.74c-1,2.53-3.48,4.24-6.2,4.24H185.6
			c-0.33,0-0.66,0.13-0.91,0.36l-12.52,11.98V53.67c0-0.35-0.14-0.68-0.39-0.93c-0.25-0.25-0.58-0.39-0.93-0.39h-6.25
			c-3.67,0-6.66-2.99-6.66-6.66V16.16c0-3.67,2.99-6.66,6.66-6.66h29.71c0.72,0,1.32-0.59,1.32-1.32c0-0.72-0.59-1.32-1.32-1.32
			h-29.71c-5.12,0-9.28,4.16-9.28,9.28v29.55c0,5.12,4.16,9.28,9.28,9.28h4.94v12.81c0,0.52,0.32,1,0.8,1.2
			c0.16,0.07,0.35,0.1,0.52,0.1c0.33,0,0.66-0.13,0.91-0.36l14.36-13.75h26.9C216.81,54.99,220.28,52.62,221.67,49.1z"/>
		<path d="M225.99,22.13c0.39-2.44-0.62-4.93-2.57-6.33c-1.11-0.8-2.41-1.21-3.77-1.21h-9.58V7.73c0-3.04-0.9-5.23-2.66-6.52
			c-2.79-2.05-6.61-0.88-6.77-0.84c-0.55,0.17-0.91,0.68-0.91,1.24v7.91c0,6.09-7.1,8.17-7.39,8.25c-0.03,0.01-0.06,0.03-0.09,0.03
			c-0.43-0.66-1.19-1.11-2.05-1.11h-7.34c-1.34,0-2.44,1.1-2.44,2.44v21.35c0,1.34,1.1,2.44,2.44,2.44h7.34
			c0.68,0,1.29-0.27,1.73-0.72c1.17,1.17,2.79,1.89,4.58,1.89h19.34c4.38,0,7.17-2.3,7.68-6.3L225.99,22.13z M190.03,40.31h-6.98
			V19.32h6.98V40.31z M223.41,21.72l-2.47,15.7c0,0.01,0,0.03,0,0.04c-0.33,2.67-2.04,4.03-5.07,4.03h-19.34
			c-2.14,0-3.87-1.73-3.87-3.87V20.35c0.13,0,0.26,0,0.39-0.04c0.38-0.1,9.31-2.69,9.31-10.78V2.68c0.95-0.13,2.43-0.16,3.53,0.64
			c1.06,0.78,1.58,2.26,1.58,4.41v8.17c0,0.72,0.59,1.32,1.32,1.32h10.9c0.81,0,1.59,0.25,2.24,0.72
			C223.04,18.76,223.64,20.25,223.41,21.72z"/>
	</g>
	<g>
		<path d="M0,62.16h5.61l2.6,23.34l0.29,5.45h0.57l0.54-6.13l4.16-22.66h4.68l3.98,22.66l0.45,6.13h0.59l0.27-5.45l2.37-23.34h5.63
			l-5.41,38.63H20.4l-3.19-18.57l-1-8.07h-0.45l-0.97,8.07l-3.35,18.57H5.56L0,62.16z"/>
		<path d="M35.92,62.16h5.86v38.63h-5.86V62.16z"/>
		<path d="M48.38,62.16h4.75l9.36,25.85h0.14c-0.05-0.6-0.11-1.27-0.18-2.01c-0.08-0.74-0.14-1.58-0.2-2.52
			c-0.06-0.94-0.11-2.01-0.16-3.2c-0.05-1.19-0.07-2.53-0.07-4.03V62.16h5.25v38.63h-4.79l-9.32-25.17h-0.18
			c0.05,0.68,0.11,1.41,0.18,2.2c0.08,0.79,0.14,1.72,0.2,2.79c0.06,1.07,0.11,2.32,0.16,3.74c0.05,1.42,0.07,3.12,0.07,5.08v11.35
			h-5.2V62.16z"/>
		<path d="M73.87,62.16h5.86v38.63h-5.86V62.16z"/>
		<path d="M89.9,66.77h-6.22v-4.61h18.27v4.61h-6.2v34.02H89.9V66.77z"/>
		<path d="M105.91,62.16h14.32v4.61h-8.46v11.56h6.54v4.61h-6.54v13.23h8.68v4.61h-14.54V62.16z"/>
		<path d="M123.19,92.96c0-0.83,0.05-1.59,0.15-2.3c0.1-0.7,0.24-1.46,0.44-2.27h4.55v1.88c0,1.04,0.06,1.96,0.19,2.76
			c0.13,0.8,0.34,1.47,0.63,2.02c0.29,0.55,0.69,0.97,1.18,1.24c0.49,0.28,1.09,0.42,1.8,0.42c1.12,0,1.97-0.31,2.56-0.92
			c0.59-0.61,0.88-1.5,0.88-2.68c0-0.6-0.04-1.16-0.12-1.66c-0.08-0.51-0.23-1.01-0.43-1.5c-0.2-0.5-0.48-1.02-0.83-1.57
			c-0.35-0.55-0.79-1.17-1.33-1.84l-6.11-7.26c-1.09-1.39-1.92-2.79-2.51-4.2c-0.59-1.41-0.88-2.91-0.88-4.51
			c0-1.28,0.2-2.46,0.6-3.53c0.4-1.07,0.98-1.99,1.73-2.77c0.75-0.78,1.68-1.38,2.79-1.81c1.11-0.43,2.36-0.64,3.77-0.64
			c1.7,0,3.12,0.24,4.26,0.72c1.14,0.48,2.05,1.12,2.73,1.9c0.68,0.78,1.16,1.66,1.44,2.64c0.28,0.97,0.42,1.95,0.42,2.93
			c0,0.83-0.06,1.59-0.19,2.3c-0.13,0.7-0.28,1.47-0.44,2.32h-4.52v-1.83c0-2.05-0.29-3.62-0.88-4.72
			c-0.59-1.09-1.55-1.64-2.87-1.64c-1.1,0-1.92,0.31-2.47,0.92c-0.54,0.61-0.81,1.43-0.81,2.45c0,0.54,0.04,1.03,0.12,1.47
			c0.08,0.44,0.2,0.84,0.36,1.21c0.16,0.37,0.35,0.73,0.58,1.07c0.23,0.35,0.48,0.71,0.77,1.09l6.81,8.23
			c1.24,1.61,2.19,3.16,2.85,4.65c0.66,1.48,1,3.06,1,4.72c0,1.37-0.22,2.61-0.64,3.71c-0.43,1.1-1.04,2.04-1.84,2.8
			c-0.8,0.77-1.76,1.36-2.89,1.78c-1.13,0.41-2.41,0.62-3.82,0.62c-1.75,0-3.2-0.23-4.35-0.7c-1.15-0.47-2.07-1.09-2.76-1.85
			c-0.69-0.77-1.17-1.64-1.45-2.62C123.33,94.99,123.19,93.99,123.19,92.96z"/>
		<path d="M149.88,66.77h-6.22v-4.61h18.27v4.61h-6.2v34.02h-5.86V66.77z"/>
	</g>
</g>
<g>
	<g>
		<path class="st1" d="M938.08-1.36c0.26-0.69-0.06-1.46-0.75-1.73c-0.69-0.26-1.46,0.06-1.73,0.75c-1.01,2.57-3.54,4.31-6.31,4.31
			h-27.89c-0.34,0-0.68,0.13-0.93,0.37l-12.73,12.19V3.29c0-0.35-0.15-0.69-0.4-0.94c-0.25-0.25-0.59-0.4-0.94-0.4h-6.35
			c-3.73,0-6.78-3.04-6.78-6.78v-30.04c0-3.73,3.04-6.78,6.78-6.78h30.21c0.74,0,1.34-0.6,1.34-1.34c0-0.74-0.6-1.34-1.34-1.34
			h-30.21c-5.2,0-9.44,4.23-9.44,9.44v30.05c0,5.2,4.23,9.44,9.44,9.44h5.03v13.03c0,0.53,0.32,1.01,0.81,1.22
			c0.16,0.07,0.35,0.1,0.53,0.1c0.34,0,0.68-0.13,0.93-0.37l14.6-13.98h27.36C933.14,4.63,936.67,2.22,938.08-1.36z"/>
		<path class="st1" d="M942.47-28.79c0.4-2.48-0.63-5.01-2.62-6.44c-1.13-0.81-2.46-1.24-3.84-1.24h-9.75v-6.97
			c0-3.09-0.91-5.32-2.71-6.63c-2.84-2.09-6.72-0.9-6.88-0.85c-0.56,0.18-0.93,0.69-0.93,1.26v8.04c0,6.19-7.22,8.31-7.51,8.4
			c-0.03,0.01-0.06,0.03-0.09,0.03c-0.44-0.68-1.21-1.13-2.09-1.13h-7.47c-1.37,0-2.48,1.12-2.48,2.48v21.72
			c0,1.37,1.12,2.48,2.48,2.48h7.47c0.69,0,1.31-0.28,1.76-0.74c1.19,1.19,2.84,1.93,4.66,1.93h19.67c4.46,0,7.29-2.34,7.81-6.41
			L942.47-28.79z M905.89-10.3h-7.1v-21.35h7.1V-10.3z M939.84-29.21l-2.51,15.97c0,0.01,0,0.03,0,0.04
			c-0.34,2.72-2.07,4.1-5.16,4.1h-19.67c-2.18,0-3.94-1.76-3.94-3.94V-30.6c0.13,0,0.26,0,0.4-0.04c0.38-0.1,9.47-2.73,9.47-10.97
			v-6.95c0.97-0.13,2.47-0.16,3.59,0.65c1.07,0.79,1.6,2.29,1.6,4.48v8.31c0,0.74,0.6,1.34,1.34,1.34h11.09
			c0.82,0,1.62,0.25,2.28,0.74C939.47-32.22,940.08-30.7,939.84-29.21z"/>
	</g>
	<g>
		<path class="st1" d="M712.62,11.92h5.7l2.65,23.74l0.3,5.54h0.58l0.55-6.23l4.23-23.05h4.76l4.05,23.05l0.46,6.23h0.6l0.28-5.54
			l2.42-23.74h5.73l-5.5,39.29h-6.05l-3.24-18.89l-1.01-8.21h-0.46l-0.99,8.21l-3.4,18.89h-5.98L712.62,11.92z"/>
		<path class="st1" d="M749.15,11.92h5.96v39.29h-5.96V11.92z"/>
		<path class="st1" d="M761.83,11.92h4.83l9.52,26.29h0.14c-0.05-0.61-0.11-1.3-0.18-2.05c-0.08-0.75-0.15-1.61-0.21-2.57
			c-0.06-0.96-0.11-2.04-0.16-3.25c-0.05-1.21-0.07-2.58-0.07-4.09V11.92h5.34v39.29h-4.88l-9.48-25.6h-0.18
			c0.05,0.69,0.11,1.44,0.18,2.24c0.08,0.81,0.15,1.75,0.21,2.84c0.06,1.09,0.11,2.36,0.16,3.81c0.05,1.45,0.07,3.17,0.07,5.16
			v11.55h-5.29V11.92z"/>
		<path class="st1" d="M787.75,11.92h5.96v39.29h-5.96V11.92z"/>
		<path class="st1" d="M804.06,16.61h-6.33v-4.69h18.59v4.69h-6.3v34.6h-5.96V16.61z"/>
		<path class="st1" d="M820.35,11.92h14.56v4.69h-8.6v11.75h6.65v4.69h-6.65v13.46h8.83v4.69h-14.79V11.92z"/>
		<path class="st1" d="M837.92,43.25c0-0.84,0.05-1.62,0.15-2.34c0.1-0.71,0.25-1.48,0.45-2.31h4.62v1.91c0,1.06,0.07,1.99,0.2,2.81
			c0.13,0.81,0.34,1.5,0.64,2.06c0.3,0.56,0.7,0.98,1.2,1.27c0.5,0.28,1.11,0.43,1.83,0.43c1.13,0,2-0.31,2.6-0.93
			c0.6-0.62,0.9-1.53,0.9-2.73c0-0.61-0.04-1.18-0.13-1.69c-0.08-0.51-0.23-1.02-0.44-1.53c-0.21-0.51-0.49-1.04-0.84-1.6
			c-0.35-0.56-0.81-1.18-1.36-1.88l-6.21-7.38c-1.1-1.41-1.96-2.83-2.55-4.27s-0.9-2.96-0.9-4.59c0-1.3,0.2-2.5,0.61-3.59
			c0.41-1.09,0.99-2.03,1.76-2.82c0.77-0.79,1.71-1.4,2.84-1.84c1.13-0.44,2.4-0.66,3.83-0.66c1.73,0,3.18,0.25,4.34,0.74
			c1.16,0.49,2.08,1.13,2.77,1.93c0.69,0.8,1.18,1.69,1.46,2.68c0.28,0.99,0.43,1.98,0.43,2.98c0,0.84-0.07,1.62-0.2,2.33
			c-0.13,0.71-0.28,1.5-0.45,2.36h-4.6v-1.86c0-2.09-0.3-3.68-0.9-4.8s-1.57-1.67-2.92-1.67c-1.12,0-1.96,0.31-2.51,0.93
			c-0.55,0.62-0.83,1.45-0.83,2.5c0,0.55,0.04,1.05,0.13,1.5c0.08,0.44,0.21,0.86,0.37,1.23c0.16,0.38,0.36,0.74,0.59,1.09
			c0.23,0.35,0.49,0.72,0.78,1.1l6.92,8.37c1.26,1.64,2.22,3.22,2.9,4.73c0.67,1.51,1.01,3.11,1.01,4.8c0,1.4-0.22,2.65-0.66,3.77
			c-0.44,1.12-1.06,2.07-1.88,2.85c-0.81,0.78-1.79,1.38-2.94,1.81c-1.15,0.42-2.45,0.63-3.89,0.63c-1.78,0-3.25-0.24-4.43-0.71
			c-1.17-0.48-2.11-1.1-2.81-1.89c-0.7-0.78-1.19-1.67-1.47-2.67C838.06,45.31,837.92,44.29,837.92,43.25z"/>
		<path class="st1" d="M865.06,16.61h-6.33v-4.69h18.59v4.69h-6.3v34.6h-5.96V16.61z"/>
	</g>
</g>
</svg>
